<svg width="97" height="110" viewBox="0 0 97 110" fill="none" xmlns="http://www.w3.org/2000/svg">
<g clip-path="url(#clip0)">
<path d="M85.9375 6.875H10.3125C4.61914 6.875 0 11.4941 0 17.1875V92.8125C0 98.5059 4.61914 103.125 10.3125 103.125H85.9375C91.6309 103.125 96.25 98.5059 96.25 92.8125V17.1875C96.25 11.4941 91.6309 6.875 85.9375 6.875ZM59.5762 89.3105C57.7715 89.6328 57.1055 88.5156 57.1055 87.5918C57.1055 86.4316 57.1484 80.502 57.1484 75.7109C57.1484 72.3594 56.0312 70.2324 54.7207 69.1152C62.6699 68.2344 71.0488 67.1387 71.0488 53.4102C71.0488 49.5 69.6523 47.5449 67.375 45.0313C67.7402 44.1074 68.9648 40.3047 67.0098 35.3633C64.0234 34.4395 57.1914 39.209 57.1914 39.209C54.3555 38.4141 51.2832 38.0059 48.2539 38.0059C45.2246 38.0059 42.1523 38.4141 39.3164 39.209C39.3164 39.209 32.4844 34.4395 29.498 35.3633C27.543 40.2832 28.7461 44.0859 29.1328 45.0313C26.8555 47.5449 25.7812 49.5 25.7812 53.4102C25.7812 67.0742 33.7949 68.2344 41.7441 69.1152C40.7129 70.0391 39.7891 71.6289 39.4668 73.9062C37.4258 74.8301 32.2051 76.4199 29.0898 70.9199C27.1348 67.5254 23.6113 67.2461 23.6113 67.2461C20.1309 67.2031 23.375 69.4375 23.375 69.4375C25.6953 70.5117 27.3281 74.6367 27.3281 74.6367C29.4121 81.0176 39.3809 78.8691 39.3809 78.8691C39.3809 81.8555 39.4238 86.7109 39.4238 87.5918C39.4238 88.5156 38.7793 89.6328 36.9531 89.3105C22.7734 84.5625 12.8477 71.0703 12.8477 55.3008C12.8477 35.5781 27.9297 20.6035 47.6523 20.6035C67.375 20.6035 83.3594 35.5781 83.3594 55.3008C83.3809 71.0703 73.7559 84.584 59.5762 89.3105ZM38.5 76.1836C38.0918 76.2695 37.7051 76.0977 37.6621 75.8184C37.6191 75.4961 37.8984 75.2168 38.3066 75.1309C38.7148 75.0879 39.1016 75.2598 39.1445 75.5391C39.209 75.8184 38.9297 76.0977 38.5 76.1836ZM36.459 75.9902C36.459 76.2695 36.1367 76.5059 35.707 76.5059C35.2344 76.5488 34.9121 76.3125 34.9121 75.9902C34.9121 75.7109 35.2344 75.4746 35.6641 75.4746C36.0723 75.4316 36.459 75.668 36.459 75.9902ZM33.5156 75.7539C33.4297 76.0332 33 76.1621 32.6348 76.0332C32.2266 75.9473 31.9473 75.625 32.0332 75.3457C32.1191 75.0664 32.5488 74.9375 32.9141 75.0234C33.3437 75.1523 33.623 75.4746 33.5156 75.7539ZM30.873 74.5938C30.6797 74.8301 30.2715 74.7871 29.9492 74.4648C29.627 74.1855 29.541 73.7773 29.7559 73.584C29.9492 73.3477 30.3574 73.3906 30.6797 73.7129C30.959 73.9922 31.0664 74.4219 30.873 74.5938ZM28.918 72.6387C28.7246 72.7676 28.3594 72.6387 28.123 72.3164C27.8867 71.9941 27.8867 71.6289 28.123 71.4785C28.3594 71.2852 28.7246 71.4355 28.918 71.7578C29.1543 72.0801 29.1543 72.4668 28.918 72.6387V72.6387ZM27.5215 70.5547C27.3281 70.748 27.0059 70.6406 26.7695 70.4258C26.5332 70.1465 26.4902 69.8242 26.6836 69.6738C26.877 69.4805 27.1992 69.5879 27.4355 69.8027C27.6719 70.082 27.7148 70.4043 27.5215 70.5547ZM26.082 68.9648C25.9961 69.1582 25.7168 69.2012 25.4805 69.0508C25.2012 68.9219 25.0723 68.6855 25.1582 68.4922C25.2441 68.3633 25.4805 68.2988 25.7598 68.4062C26.0391 68.5566 26.168 68.793 26.082 68.9648Z" fill="black"/>
</g>
<defs>
<clipPath id="clip0">
<rect width="96.25" height="110" fill="white"/>
</clipPath>
</defs>
</svg>
