<svg width="97" height="110" viewBox="0 0 97 110" fill="none" xmlns="http://www.w3.org/2000/svg">
<g clip-path="url(#clip0)">
<path d="M48.1465 30.293C34.4824 30.293 23.4609 41.3144 23.4609 54.9785C23.4609 68.6426 34.4824 79.664 48.1465 79.664C61.8105 79.664 72.832 68.6426 72.832 54.9785C72.832 41.3144 61.8105 30.293 48.1465 30.293ZM48.1465 71.0273C39.3164 71.0273 32.0976 63.8301 32.0976 54.9785C32.0976 46.1269 39.2949 38.9297 48.1465 38.9297C56.998 38.9297 64.1953 46.1269 64.1953 54.9785C64.1953 63.8301 56.9766 71.0273 48.1465 71.0273V71.0273ZM79.5996 29.2832C79.5996 32.4844 77.0215 35.041 73.8418 35.041C70.6406 35.041 68.084 32.4629 68.084 29.2832C68.084 26.1035 70.6621 23.5254 73.8418 23.5254C77.0215 23.5254 79.5996 26.1035 79.5996 29.2832ZM95.9492 35.1269C95.584 27.4141 93.8223 20.582 88.1719 14.9531C82.543 9.32422 75.7109 7.5625 67.998 7.17578C60.0488 6.72461 36.2227 6.72461 28.2734 7.17578C20.582 7.54102 13.75 9.30273 8.09961 14.9316C2.44922 20.5605 0.708984 27.3926 0.322266 35.1055C-0.128906 43.0547 -0.128906 66.8808 0.322266 74.8301C0.6875 82.543 2.44922 89.375 8.09961 95.0039C13.75 100.633 20.5605 102.395 28.2734 102.781C36.2227 103.232 60.0488 103.232 67.998 102.781C75.7109 102.416 82.543 100.654 88.1719 95.0039C93.8008 89.375 95.5625 82.543 95.9492 74.8301C96.4004 66.8808 96.4004 43.0762 95.9492 35.1269V35.1269ZM85.6797 83.3594C84.0039 87.5703 80.7598 90.8144 76.5273 92.5117C70.1894 95.0254 55.1504 94.4453 48.1465 94.4453C41.1426 94.4453 26.082 95.0039 19.7656 92.5117C15.5547 90.8359 12.3105 87.5918 10.6133 83.3594C8.09961 77.0215 8.67969 61.9824 8.67969 54.9785C8.67969 47.9746 8.12109 32.9141 10.6133 26.5977C12.2891 22.3867 15.5332 19.1426 19.7656 17.4453C26.1035 14.9316 41.1426 15.5117 48.1465 15.5117C55.1504 15.5117 70.2109 14.9531 76.5273 17.4453C80.7383 19.1211 83.9824 22.3652 85.6797 26.5977C88.1933 32.9355 87.6133 47.9746 87.6133 54.9785C87.6133 61.9824 88.1933 77.043 85.6797 83.3594Z" fill="black"/>
</g>
<defs>
<clipPath id="clip0">
<rect width="96.25" height="110" fill="white"/>
</clipPath>
</defs>
</svg>
