<svg width="97" height="110" viewBox="0 0 97 110" fill="none" xmlns="http://www.w3.org/2000/svg">
<g clip-path="url(#clip0)">
<path d="M89.375 6.875H6.85352C3.07227 6.875 0 9.99024 0 13.8145V96.1855C0 100.01 3.07227 103.125 6.85352 103.125H89.375C93.1563 103.125 96.25 100.01 96.25 96.1855V13.8145C96.25 9.99024 93.1563 6.875 89.375 6.875ZM29.0898 89.375H14.8242V43.4414H29.1113V89.375H29.0898ZM21.957 37.168C17.3809 37.168 13.6855 33.4512 13.6855 28.8965C13.6855 24.3418 17.3809 20.625 21.957 20.625C26.5117 20.625 30.2285 24.3418 30.2285 28.8965C30.2285 33.4727 26.5332 37.168 21.957 37.168V37.168ZM82.5645 89.375H68.2988V67.0312C68.2988 61.7031 68.1914 54.8496 60.8867 54.8496C53.4531 54.8496 52.3145 60.6504 52.3145 66.6445V89.375H38.0488V43.4414H51.7344V49.7148H51.9277C53.8398 46.1055 58.502 42.3027 65.4414 42.3027C79.8789 42.3027 82.5645 51.8203 82.5645 64.1953V89.375V89.375Z" fill="black"/>
</g>
<defs>
<clipPath id="clip0">
<rect width="96.25" height="110" fill="white"/>
</clipPath>
</defs>
</svg>
