<svg width="96" height="110" viewBox="0 0 96 110" fill="none" xmlns="http://www.w3.org/2000/svg">
<path d="M94.1812 40.9922C94.9125 40.3262 96 40.9492 96 42.002V85.9375C96 91.6309 91.9688 96.25 87 96.25H9C4.03125 96.25 0 91.6309 0 85.9375V42.0234C0 40.9492 1.06875 40.3477 1.81875 41.0137C6.01875 44.752 11.5875 49.5 30.7125 65.4199C34.6688 68.7285 41.3438 75.6895 48 75.6465C54.6938 75.7109 61.5 68.5996 65.3062 65.4199C84.4312 49.5 89.9812 44.7305 94.1812 40.9922ZM48 68.75C52.35 68.8359 58.6125 62.4766 61.7625 59.8555C86.6437 39.166 88.5375 37.3613 94.275 32.2051C95.3625 31.2383 96 29.7344 96 28.1445V24.0625C96 18.3691 91.9688 13.75 87 13.75H9C4.03125 13.75 0 18.3691 0 24.0625V28.1445C0 29.7344 0.6375 31.2168 1.725 32.2051C7.4625 37.3398 9.35625 39.166 34.2375 59.8555C37.3875 62.4766 43.65 68.8359 48 68.75Z" fill="black"/>
</svg>
